<?xml version="1.0" standalone="no"?>
<!DOCTYPE svg PUBLIC "-//W3C//DTD SVG 20010904//EN"
 "http://www.w3.org/TR/2001/REC-SVG-20010904/DTD/svg10.dtd">
<svg version="1.0" xmlns="http://www.w3.org/2000/svg"
 width="1823.000000pt" height="1823.000000pt" viewBox="0 0 1823.000000 1823.000000"
 preserveAspectRatio="xMidYMid meet">
<metadata>
Created by potrace 1.11, written by Peter Selinger 2001-2013
</metadata>
<g transform="translate(0.000000,1823.000000) scale(0.100000,-0.100000)"
fill="#000000" stroke="none">
<path d="M577 16584 c-1 -1 -21 -4 -43 -6 -119 -14 -260 -121 -321 -245 -33
-67 -37 -84 -42 -180 -3 -58 -6 -2680 -6 -5827 1 -5367 2 -5724 18 -5769 55
-155 153 -253 300 -299 61 -19 137 -19 8627 -20 6029 0 8573 3 8593 11 15 6
27 8 27 6 0 -3 25 7 57 20 113 51 204 149 249 271 18 47 19 258 19 5838 0
4422 -3 5803 -12 5848 -30 148 -137 270 -288 328 l-60 23 -8558 1 c-4707 1
-8559 0 -8560 0z m16764 -763 c1 -59 1 -9389 0 -9416 -1 -20 -8 -20 -8228 -20
l-8228 0 -3 4741 -2 4741 8230 0 8230 0 1 -46z"/>
<path d="M9056 13323 c-5 -27 -13 -75 -22 -135 -2 -16 -6 -40 -9 -55 -2 -16
-6 -44 -9 -63 -3 -19 -7 -48 -11 -65 -3 -16 -8 -43 -10 -60 -2 -16 -7 -46 -10
-65 -3 -19 -7 -46 -9 -60 -2 -14 -7 -45 -11 -70 -4 -25 -9 -56 -10 -70 -2 -14
-4 -25 -5 -25 -1 0 -4 -16 -6 -35 -5 -47 -12 -85 -14 -85 -1 0 -3 -16 -5 -35
-4 -50 -21 -155 -25 -155 -1 0 -4 -16 -5 -35 -2 -19 -6 -51 -9 -70 -4 -19 -9
-46 -11 -60 -11 -80 -14 -98 -20 -130 -7 -37 -12 -64 -19 -120 -3 -19 -8 -51
-11 -70 -6 -32 -9 -54 -20 -130 -6 -40 -16 -103 -21 -130 -2 -14 -6 -38 -8
-55 -5 -37 -15 -100 -23 -140 -3 -16 -7 -41 -9 -55 -2 -14 -6 -41 -9 -60 -9
-51 -14 -81 -19 -120 -8 -55 -15 -103 -20 -130 -6 -30 -19 -111 -30 -190 -16
-102 -23 -145 -26 -145 -1 0 -3 -18 -5 -40 -2 -22 -7 -53 -9 -70 -3 -16 -8
-50 -11 -75 -7 -50 -13 -85 -15 -85 -1 0 -3 -13 -5 -30 -5 -36 -14 -99 -21
-140 -3 -16 -7 -41 -9 -55 -2 -14 -7 -41 -10 -60 -4 -19 -8 -48 -10 -65 -2
-16 -6 -41 -8 -55 -3 -14 -8 -46 -11 -70 -3 -25 -8 -55 -10 -66 -8 -41 -25
-146 -31 -194 -2 -14 -6 -40 -9 -57 -9 -51 -15 -86 -21 -129 -3 -21 -8 -48 -9
-59 -2 -11 -7 -42 -11 -70 -7 -46 -9 -63 -20 -125 -6 -37 -16 -102 -20 -130
-2 -14 -4 -26 -5 -27 -1 -2 -3 -13 -3 -25 -1 -22 -1 -22 226 -22 195 -1 227 1
228 14 0 8 2 23 4 32 5 27 22 142 30 203 10 79 16 122 21 145 2 14 7 45 10 70
7 48 12 83 18 128 4 24 12 84 21 152 2 14 4 25 5 25 1 0 3 14 4 30 3 26 9 74
21 150 4 30 14 95 19 135 3 19 7 49 10 65 2 17 8 55 12 85 4 30 8 66 10 80 10
67 16 106 28 210 4 30 9 62 11 70 3 8 7 31 9 50 3 19 7 49 10 65 2 17 8 57 11
90 4 33 9 71 12 85 2 14 5 39 7 55 2 17 7 50 11 75 4 25 9 56 10 70 1 14 3 25
5 25 1 0 4 14 5 30 5 46 13 106 21 155 3 25 7 54 8 65 1 11 4 25 7 30 4 6 5
19 3 29 -1 11 0 24 3 30 4 5 8 28 9 50 1 23 5 57 9 76 4 19 9 49 11 65 2 17 5
44 8 60 3 17 8 55 11 85 7 65 10 69 33 45 9 -10 11 -15 4 -11 -7 4 1 -15 17
-42 16 -28 27 -53 24 -56 -4 -3 -1 -6 5 -6 7 0 11 -3 10 -7 -3 -13 25 -83 34
-83 4 0 8 -7 8 -15 0 -9 8 -30 17 -48 9 -18 16 -35 15 -39 -1 -5 3 -8 9 -8 5
0 7 -5 4 -10 -3 -6 3 -22 14 -36 11 -15 18 -30 15 -35 -3 -5 0 -9 6 -9 6 0 8
-4 5 -10 -3 -5 -1 -10 5 -10 6 0 8 -4 5 -10 -3 -5 -1 -10 5 -10 6 0 8 -4 5
-10 -3 -5 -1 -10 6 -10 7 0 10 -3 6 -6 -3 -4 7 -32 23 -64 16 -32 26 -60 23
-64 -4 -3 -2 -6 4 -6 10 0 26 -36 24 -52 -1 -5 4 -8 10 -8 6 0 9 -7 5 -15 -3
-8 -1 -15 5 -15 6 0 8 -4 5 -9 -3 -5 1 -14 9 -21 8 -7 15 -19 15 -28 0 -8 7
-23 16 -33 8 -9 16 -26 17 -38 1 -11 5 -21 10 -21 4 0 5 -4 2 -10 -3 -5 -1
-10 5 -10 6 0 8 -4 5 -10 -3 -5 -1 -10 5 -10 6 0 8 -4 5 -10 -3 -5 -1 -10 5
-10 6 0 9 -4 5 -9 -3 -5 -1 -12 5 -16 6 -4 8 -11 5 -16 -4 -5 -3 -9 2 -9 4 0
13 -11 20 -25 8 -18 8 -23 0 -18 -7 4 -2 -6 11 -21 12 -16 22 -37 22 -47 0
-11 5 -19 11 -19 5 0 7 -4 4 -10 -3 -5 -1 -10 5 -10 7 0 10 -7 6 -15 -3 -8 -2
-15 2 -15 8 0 36 -60 33 -72 0 -5 4 -8 10 -8 5 0 8 -4 4 -9 -3 -5 -1 -12 5
-16 6 -4 8 -11 5 -16 -4 -5 -1 -9 5 -9 6 0 8 -4 5 -10 -3 -5 -1 -10 5 -10 6 0
8 -4 5 -10 -3 -5 -1 -10 5 -10 6 0 8 -4 5 -10 -3 -5 -3 -10 2 -10 4 0 13 -11
20 -25 8 -18 8 -23 0 -18 -6 4 -1 -7 11 -24 12 -17 19 -33 15 -37 -3 -3 -1 -6
6 -6 7 0 9 -4 6 -10 -3 -5 -1 -10 4 -10 6 0 10 -3 9 -7 -1 -5 3 -18 10 -29 6
-12 8 -24 5 -28 -3 -3 -1 -6 5 -6 7 0 12 -9 12 -20 0 -11 4 -20 10 -20 5 0 6
-7 3 -17 -4 -11 -3 -14 6 -9 8 5 11 3 10 -5 -3 -16 31 -90 46 -101 6 -4 6 -8
1 -8 -5 0 -3 -7 4 -15 7 -8 9 -15 5 -15 -5 0 -1 -8 8 -18 10 -10 14 -22 10
-25 -3 -4 -1 -7 6 -7 7 0 9 -4 6 -10 -3 -5 -1 -10 5 -10 6 0 9 -4 5 -9 -3 -5
-1 -12 5 -16 5 -3 10 -15 10 -26 0 -10 5 -19 12 -19 6 0 8 -3 5 -6 -3 -4 0
-16 8 -28 8 -11 15 -28 15 -38 0 -10 5 -18 10 -18 6 0 10 -9 10 -20 0 -11 5
-20 11 -20 5 0 7 -4 4 -10 -3 -5 -1 -10 4 -10 6 0 10 -3 10 -7 -1 -5 0 -11 1
-15 1 -5 3 -11 4 -15 1 -5 14 -31 29 -60 15 -29 27 -59 27 -68 0 -8 5 -15 11
-15 5 0 7 -4 4 -10 -3 -5 -1 -10 5 -10 6 0 8 -4 5 -10 -3 -5 -1 -10 5 -10 6 0
8 -4 5 -10 -3 -5 -1 -10 6 -10 7 0 9 -3 6 -6 -3 -4 -1 -16 5 -28 7 -11 13 -23
13 -26 0 -3 8 -19 18 -36 9 -17 13 -34 10 -38 -4 -3 -1 -6 5 -6 7 0 12 -9 12
-20 0 -11 5 -20 10 -20 6 0 10 -9 10 -20 0 -11 5 -20 12 -20 6 0 9 -3 5 -6 -3
-4 1 -21 10 -38 10 -17 16 -34 15 -38 -1 -5 3 -8 8 -8 5 0 9 -3 8 -7 -1 -5 5
-21 12 -38 7 -16 14 -37 16 -45 2 -8 8 -16 14 -18 5 -2 8 -8 4 -13 -3 -5 0 -9
7 -9 7 0 9 -3 6 -6 -3 -4 -1 -16 5 -28 7 -11 11 -24 10 -28 -1 -3 5 -12 13
-18 8 -7 15 -21 15 -31 0 -10 5 -21 10 -24 6 -4 8 -11 5 -16 -4 -5 -1 -9 5 -9
6 0 8 -4 5 -10 -3 -5 -1 -10 5 -10 6 0 8 -4 5 -10 -3 -5 -1 -10 5 -10 6 0 8
-4 5 -10 -3 -5 -2 -10 3 -10 5 0 12 -13 16 -30 3 -16 11 -30 17 -30 7 0 10 3
6 6 -3 4 4 25 15 48 12 22 21 44 20 49 -1 4 3 7 9 7 5 0 7 5 4 10 -3 6 -2 10
4 10 6 0 8 7 5 15 -4 8 -1 15 6 15 6 0 8 5 5 10 -3 6 -1 10 4 10 6 0 11 4 11
9 0 5 12 35 27 67 14 33 26 62 25 67 -1 4 3 7 8 7 5 0 9 3 8 8 -1 4 5 21 15
38 9 17 13 34 10 38 -4 3 -1 6 6 6 7 0 9 5 6 10 -3 6 -1 10 6 10 7 0 9 3 6 6
-4 4 3 20 14 35 11 16 17 29 13 29 -3 0 -1 6 5 13 6 8 8 17 4 20 -3 4 0 7 7 7
7 0 10 3 7 7 -4 3 0 15 10 25 9 10 12 18 8 18 -4 0 0 9 10 20 10 11 15 20 10
20 -4 0 -2 7 5 15 7 8 9 15 4 15 -5 0 -1 5 9 11 9 6 15 14 12 19 -6 9 13 50
27 60 4 3 9 15 11 25 2 11 9 31 17 45 8 14 13 28 12 33 -1 4 3 7 8 7 5 0 9 3
8 8 -1 4 8 28 20 54 12 26 22 52 22 57 0 6 5 11 11 11 5 0 7 5 4 10 -3 6 -1
10 4 10 6 0 10 3 9 8 -1 4 3 17 10 28 6 12 8 24 5 28 -3 3 -1 6 6 6 7 0 9 5 6
10 -3 6 -1 10 5 10 6 0 8 5 5 10 -3 6 -1 10 5 10 6 0 8 5 5 10 -3 6 -1 10 6
10 7 0 9 3 6 7 -4 3 1 15 10 26 10 11 13 17 6 14 -12 -7 26 73 39 83 4 3 9 15
11 27 1 12 8 28 15 35 6 8 9 18 5 21 -3 4 -1 7 6 7 7 0 10 4 7 9 -3 5 1 14 9
21 8 7 12 16 9 21 -3 5 0 9 6 9 6 0 9 4 5 9 -3 5 -1 12 5 16 5 3 10 15 10 26
0 10 5 19 11 19 5 0 7 5 4 10 -3 6 -1 10 5 10 6 0 9 4 5 9 -3 5 1 16 9 24 8 8
12 17 9 21 -4 3 0 6 7 6 7 0 10 3 7 7 -4 3 0 17 8 30 9 13 12 23 9 23 -4 0 1
9 11 20 10 11 14 20 10 20 -4 0 -1 8 8 18 10 10 14 22 10 25 -3 4 -1 7 6 7 7
0 10 4 7 9 -7 10 23 71 39 83 6 4 6 8 1 8 -5 0 -3 6 3 13 6 8 8 17 4 20 -3 4
-1 7 6 7 7 0 9 5 6 10 -3 6 -2 10 3 10 8 0 15 13 26 50 1 3 6 12 11 20 5 8 11
24 12 35 2 11 8 22 13 23 6 2 10 7 10 12 0 4 8 25 17 46 9 22 16 42 15 47 -1
4 3 7 10 7 6 0 8 3 5 6 -4 4 2 19 13 34 11 15 17 29 14 32 -2 3 2 11 10 17 8
7 12 19 9 27 -3 8 0 14 7 14 6 0 8 5 5 10 -3 6 -1 10 5 10 6 0 8 5 5 10 -3 6
-1 10 5 10 6 0 8 5 5 10 -3 6 -2 10 3 10 9 0 27 47 24 63 -1 4 3 7 9 7 5 0 7
5 4 10 -3 6 -1 10 4 10 6 0 11 9 11 20 0 11 5 20 12 20 6 0 8 3 5 7 -4 3 -1
13 7 22 8 9 15 19 15 24 2 21 14 57 20 57 8 0 36 71 33 83 -1 4 3 7 10 7 6 0
8 3 5 6 -4 4 3 20 14 35 11 16 17 29 13 29 -5 0 -3 5 4 12 7 7 12 20 12 30 0
10 5 18 11 18 5 0 7 5 4 10 -3 6 -1 10 4 10 6 0 11 4 11 9 0 5 8 26 17 47 9
22 17 43 17 47 1 4 7 12 15 16 7 5 10 14 7 20 -4 6 -2 11 4 11 6 0 8 5 5 10
-3 6 -1 10 5 10 6 0 8 5 5 10 -3 6 1 10 9 10 9 0 16 -6 17 -12 1 -7 3 -24 5
-38 2 -14 5 -38 8 -55 4 -29 9 -65 22 -155 6 -45 8 -56 17 -140 3 -25 8 -58
11 -75 3 -16 8 -52 11 -80 4 -27 8 -61 10 -75 2 -14 6 -47 10 -75 3 -27 8 -62
10 -77 10 -58 20 -130 31 -215 2 -18 6 -48 8 -65 2 -18 7 -55 11 -83 11 -71
13 -93 20 -155 3 -30 8 -63 11 -72 3 -10 8 -39 10 -65 3 -27 7 -59 9 -73 2
-14 6 -45 9 -69 5 -43 9 -68 22 -161 4 -25 7 -62 8 -82 0 -21 3 -38 7 -38 3 0
6 -17 7 -39 2 -21 5 -49 7 -62 3 -13 8 -44 11 -69 3 -25 7 -58 10 -75 3 -16 7
-50 9 -75 2 -25 4 -45 5 -45 2 0 6 -25 15 -95 3 -25 8 -63 10 -85 3 -22 8 -56
10 -75 3 -19 7 -48 10 -65 3 -16 7 -48 10 -70 9 -76 15 -120 21 -155 3 -19 7
-41 8 -49 2 -12 40 -15 220 -15 120 -1 223 2 228 5 6 4 8 18 4 32 -5 23 -12
64 -21 137 -2 14 -6 41 -9 60 -3 19 -8 51 -11 70 -2 19 -7 53 -10 75 -4 22 -8
55 -11 73 -2 17 -6 49 -9 70 -3 20 -7 53 -10 72 -2 19 -4 35 -5 35 -1 0 -3 9
-4 20 -2 11 -7 40 -11 65 -4 25 -9 59 -11 75 -2 17 -7 48 -10 70 -3 22 -7 54
-9 70 -2 17 -4 30 -5 30 -1 0 -3 11 -5 25 -1 14 -6 45 -9 70 -12 82 -17 115
-23 155 -3 22 -7 51 -8 65 -2 14 -4 25 -5 25 -1 0 -4 14 -6 30 -1 17 -5 46 -9
65 -3 19 -7 51 -10 70 -2 19 -7 51 -10 70 -6 33 -11 69 -19 130 -2 14 -6 43
-10 65 -3 22 -8 56 -10 75 -4 32 -8 56 -22 135 -5 27 -9 57 -19 150 -2 17 -4
30 -5 30 -2 0 -4 9 -5 20 -1 11 -5 40 -9 65 -4 25 -9 61 -12 80 -2 19 -7 51
-10 70 -12 70 -16 106 -17 137 -1 18 -5 33 -9 33 -4 0 -5 12 -4 28 2 15 1 32
-3 37 -3 6 -7 19 -7 30 -2 20 -9 71 -19 135 -3 19 -8 53 -11 75 -11 81 -12 91
-18 130 -4 22 -9 51 -11 65 -3 14 -8 45 -11 70 -3 25 -8 59 -10 75 -3 17 -7
44 -9 60 -2 17 -6 46 -10 65 -3 19 -8 53 -11 75 -3 22 -7 51 -9 65 -2 14 -7
43 -10 65 -3 22 -8 56 -11 75 -3 19 -7 51 -10 70 -2 19 -7 51 -10 70 -4 19 -8
51 -9 70 -2 19 -4 35 -5 35 -2 0 -9 35 -16 85 -3 25 -8 61 -10 80 -3 19 -7 49
-10 65 -10 63 -26 172 -29 205 -2 14 -3 28 -4 33 -1 4 -6 7 -12 7 -5 0 -7 -4
-4 -10 3 -5 2 -10 -3 -10 -8 0 -14 -13 -22 -48 -1 -4 -9 -15 -17 -24 -9 -10
-13 -18 -8 -18 4 0 2 -6 -4 -13 -6 -8 -8 -17 -4 -20 3 -4 1 -7 -5 -7 -6 0 -13
-13 -17 -30 -4 -16 -11 -30 -16 -30 -6 0 -8 -4 -5 -9 4 -5 1 -11 -4 -13 -6 -2
-12 -13 -13 -26 0 -12 -5 -22 -10 -22 -4 0 -5 -4 -2 -10 3 -5 1 -10 -5 -10 -6
0 -8 -4 -5 -10 3 -5 1 -10 -5 -10 -6 0 -8 -4 -5 -10 3 -5 1 -10 -5 -10 -6 0
-8 -4 -5 -10 3 -5 1 -10 -5 -10 -6 0 -8 -4 -5 -10 3 -5 1 -10 -5 -10 -6 0 -9
-4 -5 -9 3 -5 1 -12 -5 -16 -5 -3 -10 -15 -10 -26 0 -10 -4 -19 -10 -19 -5 0
-10 -7 -10 -15 0 -8 -11 -34 -25 -58 -13 -25 -21 -47 -18 -51 4 -3 1 -6 -6 -6
-7 0 -9 -4 -6 -10 3 -5 1 -10 -5 -10 -6 0 -8 -4 -5 -10 3 -5 1 -10 -6 -10 -7
0 -9 -3 -6 -6 4 -4 -3 -20 -15 -37 -12 -17 -17 -28 -11 -24 8 5 8 0 0 -18 -7
-14 -15 -25 -19 -25 -5 0 -8 -4 -8 -9 0 -5 -7 -26 -16 -47 -9 -22 -16 -40 -16
-41 1 -2 -14 -30 -33 -63 -19 -34 -30 -58 -25 -55 6 3 7 -1 4 -9 -3 -9 -10
-16 -15 -16 -5 0 -9 -9 -9 -19 0 -11 -7 -27 -16 -35 -8 -9 -17 -24 -19 -33 -2
-10 -15 -42 -29 -70 -14 -29 -26 -56 -27 -60 0 -5 -8 -17 -17 -27 -9 -11 -11
-16 -5 -12 9 5 11 2 7 -8 -3 -9 -10 -16 -16 -16 -5 0 -6 -4 -3 -10 3 -5 2 -10
-4 -10 -5 0 -12 -13 -16 -30 -4 -16 -11 -30 -17 -30 -6 0 -8 -3 -5 -6 3 -4 1
-16 -5 -28 -7 -11 -13 -23 -13 -26 -1 -3 -11 -24 -23 -46 -11 -23 -18 -44 -15
-48 4 -3 1 -6 -6 -6 -7 0 -9 -4 -6 -10 3 -5 1 -10 -5 -10 -6 0 -9 -4 -6 -9 3
-5 -1 -14 -9 -21 -8 -7 -12 -16 -9 -21 3 -5 0 -9 -7 -9 -7 0 -9 -3 -6 -6 3 -4
1 -16 -5 -28 -7 -11 -11 -24 -10 -28 1 -5 -3 -8 -10 -8 -6 0 -8 -3 -5 -7 4 -3
-1 -12 -11 -20 -10 -9 -11 -12 -2 -7 10 5 9 0 -4 -14 -11 -12 -15 -22 -11 -22
4 0 1 -8 -8 -18 -10 -10 -14 -22 -10 -25 3 -4 1 -7 -6 -7 -7 0 -10 -4 -7 -9 6
-10 -16 -61 -26 -61 -5 0 -8 -9 -8 -19 0 -11 -5 -23 -10 -26 -6 -4 -8 -11 -5
-16 4 -5 1 -9 -6 -9 -7 0 -9 -3 -6 -7 4 -3 -1 -12 -11 -20 -10 -9 -11 -12 -2
-7 11 6 10 2 -3 -13 -9 -11 -14 -23 -10 -26 3 -4 0 -7 -7 -7 -7 0 -10 -3 -7
-7 4 -3 -1 -15 -10 -26 -10 -11 -12 -17 -6 -13 9 5 11 2 7 -8 -3 -9 -10 -16
-15 -16 -5 0 -9 -4 -9 -9 0 -5 -12 -35 -27 -67 -14 -33 -26 -62 -25 -66 1 -5
-3 -8 -9 -8 -5 0 -7 -4 -4 -10 3 -5 1 -10 -5 -10 -6 0 -8 -4 -5 -10 3 -5 1
-10 -6 -10 -7 0 -9 -3 -6 -6 4 -4 -3 -20 -15 -37 -12 -17 -17 -28 -11 -24 6 4
-4 -21 -22 -55 -19 -34 -31 -66 -29 -70 3 -4 0 -8 -6 -8 -6 0 -8 -4 -5 -10 3
-5 1 -10 -4 -10 -6 0 -10 -3 -9 -7 1 -5 -8 -27 -20 -49 -11 -23 -18 -44 -15
-48 4 -3 1 -6 -5 -6 -7 0 -12 -9 -12 -20 0 -11 -4 -20 -10 -20 -5 0 -10 -7
-10 -15 0 -9 -7 -27 -16 -40 -9 -14 -13 -25 -9 -25 5 0 1 -8 -8 -18 -10 -10
-14 -22 -10 -25 3 -4 1 -7 -6 -7 -7 0 -9 -4 -6 -10 3 -5 1 -10 -5 -10 -6 0 -8
-4 -5 -10 3 -5 1 -10 -6 -10 -7 0 -9 -3 -6 -7 4 -3 -1 -15 -10 -26 -10 -11
-13 -17 -6 -14 8 5 8 1 0 -18 -7 -14 -16 -25 -20 -25 -5 0 -5 -4 -2 -10 3 -5
1 -10 -5 -10 -6 0 -8 -4 -5 -10 3 -5 1 -10 -5 -10 -6 0 -8 -4 -5 -10 3 -5 1
-10 -6 -10 -7 0 -9 -3 -6 -7 4 -3 2 -12 -4 -20 -6 -7 -8 -13 -3 -13 5 0 4 -4
-1 -8 -13 -9 -61 -113 -58 -124 2 -4 -2 -8 -8 -8 -5 0 -7 -4 -4 -10 3 -5 1
-10 -4 -10 -6 0 -11 -7 -11 -15 0 -18 -20 -57 -35 -67 -5 -4 -6 -8 -2 -8 4 0
2 -10 -5 -22 -7 -13 -11 -26 -10 -30 1 -5 -3 -8 -9 -8 -5 0 -7 -4 -4 -10 3 -5
1 -10 -5 -10 -6 0 -9 -4 -6 -9 3 -5 -1 -14 -9 -21 -8 -7 -12 -16 -10 -21 6 -9
-11 -44 -33 -67 -10 -11 -16 -12 -25 -3 -6 6 -7 11 -3 11 4 0 -2 16 -14 35
-12 19 -18 35 -14 35 4 0 -1 10 -12 22 -12 13 -13 18 -4 13 11 -6 10 -3 -3 12
-9 11 -14 23 -10 26 3 4 1 7 -5 7 -7 0 -11 3 -10 8 1 4 -8 26 -20 48 -11 23
-18 44 -15 48 4 3 1 6 -6 6 -7 0 -9 5 -6 10 3 6 1 10 -5 10 -6 0 -8 5 -5 10 3
6 1 10 -5 10 -6 0 -8 5 -5 10 3 6 1 10 -4 10 -6 0 -10 3 -10 8 1 4 0 10 -1 15
-1 4 -3 10 -4 15 -1 4 -16 35 -33 69 -17 34 -28 64 -25 67 3 4 0 6 -7 6 -7 0
-10 4 -6 9 3 5 -2 17 -11 25 -8 9 -13 16 -10 16 4 0 -4 19 -16 43 -12 23 -21
45 -20 50 1 4 -2 7 -8 7 -6 0 -9 3 -8 8 3 15 -15 62 -24 62 -5 0 -6 5 -3 10 3
6 1 10 -5 10 -6 0 -8 5 -5 10 3 6 1 10 -4 10 -6 0 -10 3 -9 8 1 4 -6 24 -15
46 -9 21 -17 42 -17 47 0 5 -4 9 -8 9 -4 0 -9 10 -9 22 -1 13 -7 24 -13 26 -5
2 -10 12 -10 23 0 10 -5 19 -11 19 -5 0 -7 5 -4 10 3 6 1 10 -5 10 -6 0 -9 4
-5 9 3 5 1 12 -5 16 -6 4 -8 11 -5 16 4 5 1 9 -4 9 -6 0 -10 3 -9 8 1 4 -6 22
-15 40 -10 17 -14 32 -10 32 5 0 2 4 -5 8 -7 5 -15 19 -17 32 -2 13 -10 27
-17 32 -7 4 -10 8 -5 8 4 0 0 15 -10 33 -9 17 -16 35 -15 40 1 4 -3 7 -9 7 -5
0 -7 5 -4 10 3 6 1 10 -5 10 -6 0 -8 5 -5 10 3 6 1 10 -5 10 -6 0 -8 5 -5 10
3 6 -1 17 -9 26 -9 9 -14 20 -11 25 4 5 1 9 -5 9 -6 0 -9 4 -5 9 3 5 -2 17
-11 25 -8 9 -13 16 -9 16 3 0 -2 15 -12 33 -9 17 -16 35 -15 40 1 4 -3 7 -9 7
-5 0 -7 5 -4 10 3 6 1 10 -5 10 -6 0 -9 4 -5 9 3 5 1 12 -5 16 -6 4 -8 11 -5
16 4 5 1 9 -5 9 -6 0 -8 5 -5 10 3 6 2 10 -3 10 -9 0 -22 28 -27 55 0 6 -15
38 -33 71 -17 34 -28 64 -25 68 4 3 1 6 -6 6 -7 0 -10 4 -6 9 3 5 -2 16 -10
24 -8 9 -16 24 -18 34 -2 10 -15 41 -30 70 -15 29 -27 59 -27 68 0 8 -5 15
-12 15 -6 0 -9 3 -5 6 3 4 -1 13 -9 21 -8 8 -12 19 -9 24 4 5 1 9 -6 9 -7 0
-9 3 -6 7 4 3 2 12 -4 20 -6 7 -8 13 -5 13 4 0 -3 14 -15 32 -13 17 -16 28 -8
23 11 -6 10 -4 -2 11 -18 21 -33 55 -31 67 1 4 -3 7 -9 7 -6 0 -9 7 -5 15 3 8
-2 19 -12 24 -9 6 -14 11 -9 11 4 0 -6 26 -22 59 -17 32 -27 61 -24 65 4 3 1
6 -6 6 -7 0 -9 5 -6 10 3 6 1 10 -5 10 -6 0 -8 5 -5 10 3 6 1 10 -5 10 -6 0
-8 5 -5 10 3 6 1 10 -5 10 -6 0 -9 4 -6 9 3 4 -1 17 -9 27 -8 10 -15 27 -15
37 0 9 -4 17 -10 17 -6 0 -9 3 -8 8 1 4 -5 21 -15 38 -9 17 -13 34 -10 38 4 3
1 6 -5 6 -7 0 -12 9 -12 20 0 11 -5 20 -11 20 -5 0 -7 5 -4 10 3 6 1 10 -5 10
-6 0 -9 4 -5 9 3 5 1 12 -5 16 -6 4 -8 11 -5 16 4 5 1 9 -4 9 -6 0 -10 3 -9 8
1 4 -8 26 -20 48 -11 23 -18 44 -15 48 4 3 1 6 -6 6 -7 0 -9 5 -6 10 3 6 1 10
-5 10 -6 0 -8 5 -5 10 3 6 1 10 -5 10 -6 0 -8 5 -5 10 3 6 1 10 -5 10 -6 0 -9
4 -5 9 3 5 1 12 -5 16 -6 4 -8 10 -5 15 3 5 -1 14 -8 22 -12 11 -28 44 -29 58
0 3 -5 14 -11 25 -6 11 -12 26 -13 34 -2 8 -7 17 -13 20 -6 4 -12 16 -14 26
-2 11 -9 31 -17 45 -8 14 -15 31 -16 39 -2 8 -9 18 -16 22 -7 5 -9 9 -4 9 5 0
3 6 -3 13 -6 8 -8 17 -4 20 3 4 0 7 -7 7 -7 0 -11 3 -7 6 3 4 -1 13 -9 21 -8
8 -12 18 -9 23 3 5 1 11 -4 14 -5 4 -12 -6 -15 -21z"/>
<path d="M5458 13150 l-22 -6 0 -2044 0 -2044 221 0 c190 -1 222 1 225 14 2 8
3 412 2 898 l0 882 67 0 c41 0 71 -5 75 -12 5 -7 2 -9 -7 -4 -8 4 -3 -2 11
-14 14 -12 18 -19 10 -15 -8 4 -5 -2 8 -13 12 -11 22 -23 22 -28 0 -4 8 -13
18 -21 11 -10 12 -12 2 -8 -8 3 -5 -2 8 -11 12 -9 22 -23 22 -30 0 -8 5 -14
10 -14 6 0 10 -6 10 -14 0 -8 7 -16 15 -20 8 -3 15 -12 15 -21 0 -8 5 -15 11
-15 5 0 8 -4 4 -9 -3 -6 3 -14 12 -20 10 -6 14 -11 9 -11 -5 0 1 -8 12 -19 12
-10 19 -21 15 -25 -3 -3 -1 -6 6 -6 7 0 10 -4 7 -9 -3 -5 1 -11 9 -15 8 -3 15
-10 15 -16 0 -6 6 -18 13 -25 30 -34 37 -45 30 -45 -4 0 2 -7 13 -15 10 -8 16
-15 12 -15 -4 0 4 -11 18 -25 14 -14 22 -30 19 -35 -3 -6 1 -10 10 -10 9 0 13
-4 10 -10 -3 -5 -1 -10 4 -10 6 0 11 -7 11 -15 0 -8 4 -15 9 -15 5 0 12 -8 16
-19 3 -10 13 -28 23 -39 9 -11 24 -30 32 -42 8 -12 21 -29 28 -36 7 -8 11 -14
7 -14 -4 0 0 -7 7 -15 7 -8 18 -20 23 -28 6 -7 19 -24 30 -37 13 -15 15 -21 5
-16 -8 4 -5 -1 8 -10 12 -9 22 -23 22 -31 0 -7 7 -16 15 -19 8 -4 12 -10 9
-15 -3 -5 2 -12 10 -15 9 -3 16 -12 16 -19 0 -6 11 -24 25 -39 13 -14 21 -26
18 -26 -4 0 2 -7 13 -16 10 -8 12 -13 4 -9 -10 4 -9 2 3 -8 9 -8 17 -19 17
-26 0 -6 5 -11 10 -11 6 0 10 -5 10 -11 0 -7 9 -20 21 -30 11 -9 20 -20 20
-23 -3 -20 0 -26 9 -21 6 3 10 -1 10 -9 0 -9 5 -16 12 -16 6 0 9 -3 5 -6 -6
-6 6 -24 35 -51 9 -9 15 -20 12 -25 -3 -4 0 -8 5 -8 6 0 11 -6 11 -14 0 -8 7
-16 15 -20 8 -3 14 -10 13 -15 -2 -5 6 -17 17 -26 11 -9 13 -14 5 -10 -8 4 -4
-3 10 -15 14 -12 18 -19 10 -15 -13 6 -13 5 0 -7 29 -25 56 -62 40 -54 -8 5
-1 -4 15 -19 17 -14 23 -23 15 -20 -8 4 -4 -3 10 -15 14 -12 18 -19 10 -15 -8
4 -4 -4 10 -18 38 -40 52 -57 43 -57 -4 0 2 -7 13 -16 10 -8 12 -13 4 -9 -8 3
-5 -2 8 -11 12 -9 22 -23 22 -30 0 -8 5 -14 11 -14 5 0 8 -4 5 -8 -3 -5 4 -16
15 -25 10 -9 19 -24 19 -32 0 -9 5 -13 10 -10 9 6 14 -8 11 -27 0 -5 2 -7 7
-7 4 1 9 0 12 -1 15 -6 523 -4 527 3 2 4 -1 7 -7 7 -6 0 -8 4 -5 10 3 5 -5 21
-19 34 -14 13 -26 27 -26 31 0 4 -8 14 -17 22 -11 9 -12 12 -3 7 8 -4 -3 12
-25 36 -22 24 -33 40 -25 36 8 -4 6 0 -4 8 -11 9 -16 16 -11 16 4 0 -2 8 -13
19 -12 10 -22 23 -22 30 0 6 -4 11 -8 11 -5 0 -19 20 -32 45 -12 24 -27 42
-31 39 -5 -3 -9 2 -9 10 0 9 -5 16 -11 16 -5 0 -8 4 -5 8 3 5 -4 14 -14 22
-10 8 -17 17 -14 22 3 4 0 8 -5 8 -6 0 -11 7 -11 16 0 8 -4 12 -10 9 -5 -3
-10 1 -10 9 0 9 -5 16 -11 16 -5 0 -7 5 -4 10 3 6 -1 13 -9 16 -9 3 -16 12
-16 20 0 8 -4 14 -10 14 -5 0 -10 4 -10 10 0 9 -19 36 -48 66 -7 8 -10 14 -5
14 4 0 -1 7 -11 15 -11 8 -16 15 -11 15 4 0 -2 8 -13 19 -12 10 -19 21 -15 25
3 3 1 6 -6 6 -7 0 -10 4 -7 9 3 5 -1 11 -9 15 -8 3 -15 13 -15 21 0 9 -4 13
-10 10 -9 -5 -15 9 -7 18 1 2 -13 18 -31 36 -17 18 -30 36 -27 41 3 4 -2 11
-11 14 -8 3 -12 11 -9 16 4 6 1 9 -7 8 -7 -2 -12 3 -11 10 2 6 -2 12 -8 12 -5
0 -8 4 -5 9 3 5 -1 12 -10 15 -9 4 -14 9 -11 12 3 3 -3 16 -14 28 -50 56 -83
99 -69 92 8 -4 4 2 -10 14 -14 12 -18 19 -10 15 8 -4 3 4 -12 19 -16 15 -28
34 -28 42 0 8 -4 12 -10 9 -5 -3 -10 1 -10 9 0 8 -8 20 -17 25 -10 6 -14 11
-10 11 5 0 2 7 -5 15 -30 33 -38 45 -38 55 0 6 -7 13 -15 16 -8 4 -15 11 -15
16 0 6 -8 17 -17 25 -12 10 -13 12 -3 8 8 -4 6 1 -4 9 -11 9 -16 16 -11 16 4
0 -2 8 -13 19 -12 10 -19 21 -15 25 3 3 1 6 -5 6 -7 0 -12 7 -12 16 0 8 -4 12
-10 9 -5 -3 -10 -1 -10 5 0 12 -50 83 -63 88 -4 2 -5 8 -1 13 3 5 0 9 -6 9 -6
0 -16 13 -21 30 -6 16 -15 27 -20 24 -5 -3 -9 2 -9 11 0 8 -7 18 -15 21 -8 4
-13 10 -10 14 3 5 -3 13 -12 19 -10 6 -15 11 -11 11 7 0 -10 25 -39 55 -7 7
-9 15 -6 19 4 3 2 6 -4 6 -12 0 -25 39 -15 41 4 0 23 2 42 4 32 3 83 13 120
22 8 2 25 4 38 5 12 0 25 4 28 9 2 4 11 6 19 2 8 -3 15 0 15 7 0 7 7 10 15 6
8 -3 15 -2 15 3 0 4 6 8 13 9 27 2 46 8 59 20 8 6 18 9 21 5 4 -3 7 -1 7 6 0
7 4 10 9 6 5 -3 12 -1 16 5 4 6 10 8 15 5 4 -3 11 2 14 11 3 8 10 12 16 9 5
-3 10 -1 10 5 0 6 5 8 10 5 6 -3 10 -1 10 5 0 6 4 9 8 6 5 -3 20 6 34 19 14
13 29 21 32 18 3 -4 6 0 6 7 0 7 2 11 5 8 6 -6 34 18 127 105 28 26 48 47 43
47 -4 0 9 15 29 33 20 18 36 39 36 45 0 6 11 23 26 37 14 14 22 30 19 35 -3 6
-1 10 5 10 6 0 8 5 5 10 -3 6 -2 10 3 10 4 0 14 16 22 35 8 19 18 35 22 35 5
0 6 5 3 10 -3 6 -1 10 4 10 6 0 10 3 9 8 -1 4 4 23 11 42 8 19 13 41 12 48 -1
6 3 12 9 12 6 0 9 4 6 9 -3 5 1 26 10 46 8 20 13 39 10 42 -2 3 0 16 5 30 5
13 12 48 16 76 9 59 8 336 -1 382 -3 17 -7 41 -10 55 -2 14 -8 42 -14 62 -5
20 -7 39 -4 42 3 3 0 6 -5 6 -6 0 -14 18 -18 40 -4 22 -11 40 -17 40 -6 0 -7
7 -4 15 3 9 -1 18 -10 22 -8 3 -13 11 -10 18 3 8 -2 16 -10 19 -9 3 -12 10 -9
16 3 5 1 10 -6 10 -7 0 -10 3 -6 6 3 4 1 12 -6 20 -27 30 -37 44 -37 49 1 21
-1 25 -10 20 -5 -3 -10 1 -10 9 0 9 -5 16 -12 16 -6 0 -9 3 -5 6 3 3 -5 16
-18 29 -14 12 -22 25 -18 28 3 4 -2 9 -11 13 -9 3 -16 13 -16 22 0 8 -2 13 -5
10 -8 -7 -65 47 -65 62 0 6 -4 9 -9 5 -5 -3 -18 6 -29 20 -11 14 -25 25 -31
25 -6 0 -11 5 -11 12 0 6 -3 9 -6 5 -3 -3 -15 2 -25 12 -22 20 -170 97 -181
93 -5 -1 -8 3 -8 10 0 6 -3 9 -6 5 -3 -3 -18 -1 -33 5 -29 11 -60 19 -78 20
-7 1 -13 4 -13 8 0 4 -6 7 -12 7 -7 0 -33 6 -58 12 -25 7 -56 14 -70 16 -14 1
-25 4 -25 5 0 1 -16 4 -35 6 -74 10 -85 12 -85 14 0 3 -59 7 -205 15 -150 8
-772 12 -802 5z m907 -434 c90 -6 156 -16 193 -28 18 -5 39 -11 45 -12 34 -8
126 -50 170 -79 15 -10 27 -15 27 -10 0 4 5 0 11 -9 5 -10 14 -18 20 -18 5 0
24 -15 42 -33 17 -18 39 -38 47 -43 29 -17 88 -119 114 -197 51 -153 62 -348
26 -486 -5 -19 -7 -38 -4 -43 3 -4 0 -8 -5 -8 -6 0 -11 -5 -11 -11 0 -13 -51
-131 -60 -139 -17 -16 -65 -86 -62 -92 1 -5 -2 -7 -7 -5 -5 1 -17 -7 -27 -19
-27 -30 -129 -104 -143 -104 -6 0 -14 -6 -17 -14 -3 -8 -11 -13 -19 -10 -7 3
-20 -2 -28 -11 -9 -9 -18 -15 -19 -14 -2 1 -34 -9 -73 -21 -38 -12 -81 -24
-95 -26 -23 -4 -35 -7 -95 -21 -34 -7 -488 -12 -500 -5 -13 8 -16 1453 -3
1463 9 6 378 3 473 -5z"/>
<path d="M4668 12502 c-10 -2 -18 -8 -18 -13 0 -5 -7 -9 -15 -9 -9 0 -39 -12
-68 -27 -29 -15 -55 -26 -59 -25 -5 1 -8 -3 -8 -10 0 -6 -3 -8 -7 -5 -3 4 -21
-3 -40 -14 -18 -11 -33 -17 -33 -12 0 4 -4 2 -9 -5 -4 -7 -14 -14 -22 -16 -8
-1 -42 -16 -76 -33 -34 -17 -64 -28 -67 -25 -4 3 -6 0 -6 -7 0 -7 -4 -10 -9
-7 -5 3 -14 -1 -21 -9 -7 -8 -16 -12 -21 -9 -5 3 -9 1 -9 -5 0 -6 -7 -7 -17
-4 -11 4 -14 3 -9 -5 4 -8 0 -12 -11 -12 -11 0 -24 -5 -31 -12 -7 -7 -12 -9
-12 -4 0 4 -13 -2 -29 -13 -15 -11 -31 -18 -35 -14 -3 3 -6 1 -6 -6 0 -8 -7
-11 -15 -7 -8 3 -19 -2 -24 -12 -5 -9 -13 -14 -17 -10 -4 4 -19 -1 -34 -12
-15 -11 -30 -17 -34 -13 -3 3 -6 1 -6 -5 0 -7 -3 -11 -7 -10 -5 1 -22 -5 -39
-15 -17 -9 -34 -13 -38 -10 -3 4 -6 1 -6 -5 0 -7 -4 -12 -10 -12 -5 0 -40 -15
-77 -33 -38 -18 -71 -34 -75 -35 -22 -6 -103 -48 -106 -55 -2 -4 -8 -5 -13 -1
-5 3 -16 -2 -25 -10 -8 -9 -24 -16 -34 -16 -10 0 -20 -3 -22 -7 -1 -5 -18 -16
-36 -25 -18 -10 -30 -12 -26 -6 4 7 -8 1 -27 -12 -19 -14 -34 -23 -34 -21 0 5
-99 -43 -106 -52 -3 -5 -10 -9 -15 -9 -5 0 -19 -4 -32 -9 -13 -5 -28 -9 -33
-9 -5 0 -9 -5 -9 -11 0 -5 -4 -7 -10 -4 -5 3 -10 1 -10 -5 0 -7 -7 -10 -15 -6
-8 3 -19 -2 -24 -12 -6 -9 -11 -13 -11 -8 0 5 -7 3 -15 -4 -8 -7 -15 -9 -15
-5 0 5 -9 0 -20 -10 -11 -10 -20 -14 -20 -10 0 4 -9 0 -20 -10 -11 -10 -20
-15 -20 -12 0 4 -15 -2 -32 -13 -18 -11 -41 -20 -50 -20 -10 0 -18 -4 -18 -9
0 -8 -37 -24 -52 -22 -5 1 -8 -3 -8 -9 0 -5 -7 -10 -15 -10 -9 0 -35 -10 -58
-22 -23 -12 -45 -21 -49 -20 -5 1 -8 -3 -8 -9 0 -5 -5 -7 -10 -4 -6 3 -10 1
-10 -5 0 -6 -4 -8 -10 -5 -5 3 -10 1 -10 -6 0 -7 -3 -9 -7 -6 -3 4 -12 2 -20
-4 -7 -6 -13 -8 -13 -5 0 4 -7 0 -16 -8 -8 -9 -20 -14 -25 -11 -5 4 -9 2 -9
-4 0 -5 -13 -12 -30 -16 -17 -4 -30 -11 -30 -17 0 -6 -3 -9 -6 -5 -4 3 -30 -6
-58 -20 -28 -15 -54 -26 -58 -25 -5 1 -8 -3 -8 -9 0 -5 -4 -7 -10 -4 -5 3 -10
1 -10 -4 0 -6 -3 -10 -7 -9 -5 1 -18 -3 -30 -10 -13 -7 -23 -9 -23 -5 0 4 -4
4 -8 -2 -10 -15 -49 -35 -67 -35 -8 0 -15 -5 -15 -10 0 -6 -3 -9 -7 -8 -5 1
-18 -3 -29 -10 -12 -6 -24 -8 -28 -5 -3 3 -6 1 -6 -5 0 -7 -6 -12 -13 -12 -8
0 -23 -8 -33 -17 -17 -16 -19 -33 -19 -188 1 -110 5 -177 13 -190 6 -11 12
-17 12 -13 0 4 42 -14 93 -39 50 -26 94 -48 97 -49 3 -1 15 -5 28 -9 12 -4 22
-11 22 -16 0 -5 7 -6 15 -3 8 4 15 1 15 -6 0 -6 4 -8 10 -5 6 3 10 1 10 -5 0
-6 5 -8 10 -5 6 3 10 1 10 -4 0 -6 9 -11 20 -11 11 0 20 -5 20 -12 0 -6 3 -9
6 -5 4 3 25 -4 48 -15 22 -12 44 -21 49 -20 4 1 7 -2 7 -8 0 -6 3 -10 8 -9 15
2 52 -14 52 -23 0 -5 4 -7 9 -4 10 6 61 -16 61 -26 0 -5 9 -8 20 -8 11 0 20
-5 20 -11 0 -5 5 -7 10 -4 6 3 10 1 10 -6 0 -7 3 -9 6 -6 4 3 16 1 28 -5 11
-7 24 -11 29 -10 4 1 7 -2 7 -8 0 -6 3 -9 8 -8 4 1 27 -9 52 -22 25 -13 49
-23 53 -22 4 1 15 -5 23 -13 9 -8 20 -13 25 -10 5 4 9 1 9 -5 0 -6 5 -8 10 -5
6 3 10 1 10 -4 0 -6 4 -11 9 -11 5 0 22 -5 38 -12 15 -6 31 -11 36 -10 4 1 7
-2 7 -7 0 -5 10 -12 23 -16 12 -4 24 -8 27 -9 3 -1 24 -12 46 -24 23 -11 44
-18 48 -15 3 4 6 2 6 -4 0 -10 36 -26 53 -24 4 1 7 -3 7 -9 0 -6 3 -10 8 -9
15 2 52 -14 52 -23 0 -5 4 -7 9 -3 5 3 17 -2 25 -11 9 -8 16 -13 16 -9 0 3 10
0 23 -7 12 -7 25 -11 30 -10 4 1 7 -3 7 -9 0 -5 4 -8 9 -5 5 3 14 -1 21 -9 7
-8 16 -12 21 -9 5 3 9 0 9 -6 0 -6 4 -9 9 -5 5 3 12 1 16 -5 4 -6 11 -8 16 -5
5 4 9 1 9 -5 0 -6 5 -8 10 -5 6 3 13 0 16 -9 3 -8 11 -13 19 -10 7 3 19 -2 28
-10 9 -9 23 -16 31 -16 9 0 16 -5 16 -11 0 -6 6 -9 13 -6 6 2 28 -6 48 -19 20
-13 40 -20 43 -17 3 4 6 1 6 -6 0 -7 4 -10 9 -7 5 3 14 -1 21 -9 6 -7 17 -12
24 -9 8 3 20 -2 29 -10 8 -8 17 -12 21 -9 3 4 6 1 6 -5 0 -7 9 -12 20 -12 11
0 20 -5 20 -11 0 -5 5 -7 10 -4 6 3 10 1 10 -4 0 -6 3 -10 8 -10 4 1 10 0 15
-1 4 -1 10 -3 15 -4 4 -1 35 -16 69 -34 35 -18 66 -32 70 -33 5 0 17 -8 27
-17 15 -13 17 -13 11 -2 -6 11 -3 10 12 -3 11 -9 23 -14 26 -10 4 3 7 1 7 -5
0 -7 3 -11 8 -10 14 4 52 -13 52 -23 0 -6 5 -7 10 -4 6 3 10 1 10 -6 0 -7 3
-9 7 -6 3 4 17 0 30 -8 13 -9 23 -13 23 -10 0 3 18 -6 41 -21 23 -14 38 -20
33 -12 -4 7 2 5 13 -5 11 -9 23 -14 26 -10 4 3 7 1 7 -5 0 -7 3 -12 8 -11 15
2 52 -14 52 -23 0 -5 5 -6 10 -3 6 3 10 1 10 -5 0 -6 5 -8 10 -5 6 3 10 1 10
-6 0 -7 3 -10 6 -6 3 3 28 -6 56 -20 41 -21 52 -23 59 -12 11 17 12 389 1 405
-9 15 -67 44 -87 44 -8 0 -15 5 -15 10 0 6 -9 10 -20 10 -11 0 -20 5 -20 10 0
6 -8 10 -18 10 -10 0 -27 7 -38 15 -12 8 -24 11 -28 8 -3 -3 -6 -1 -6 5 0 7
-8 12 -17 12 -10 0 -27 7 -37 15 -10 8 -23 12 -27 9 -5 -3 -9 0 -9 6 0 6 -4 8
-10 5 -5 -3 -10 -1 -10 4 0 6 -7 11 -15 11 -9 0 -32 9 -53 19 -20 10 -41 20
-47 21 -5 1 -19 7 -30 13 -11 6 -23 10 -27 9 -5 -1 -8 3 -8 9 0 5 -4 7 -10 4
-5 -3 -10 -1 -10 5 0 6 -4 8 -10 5 -5 -3 -10 -1 -10 5 0 6 -4 8 -10 5 -5 -3
-10 -1 -10 6 0 7 -3 10 -6 6 -4 -3 -21 1 -38 10 -17 10 -34 16 -38 15 -5 -1
-8 2 -8 8 0 6 -3 9 -7 8 -5 -1 -18 3 -29 10 -12 6 -24 8 -28 5 -3 -3 -6 -1 -6
6 0 7 -4 10 -9 7 -5 -3 -20 4 -35 15 -14 11 -26 18 -26 15 0 -4 -19 4 -42 16
-24 12 -46 21 -50 20 -5 -1 -8 2 -8 8 0 5 -7 7 -15 4 -8 -4 -15 -1 -15 6 0 6
-4 8 -10 5 -5 -3 -10 -1 -10 5 0 6 -4 8 -10 5 -5 -3 -10 -1 -10 5 0 6 -4 8
-10 5 -5 -3 -10 -1 -10 5 0 6 -4 9 -9 5 -5 -3 -12 -1 -16 5 -4 6 -11 8 -16 5
-5 -4 -9 -1 -9 6 0 7 -3 9 -7 6 -3 -4 -15 0 -25 10 -10 9 -18 13 -18 9 0 -3
-10 0 -23 9 -13 8 -27 12 -30 8 -4 -3 -7 -1 -7 6 0 7 -4 9 -10 6 -5 -3 -10 -1
-10 5 0 6 -4 8 -10 5 -5 -3 -10 -1 -10 5 0 6 -4 8 -10 5 -5 -3 -10 -1 -10 5 0
6 -4 8 -10 5 -5 -3 -10 -1 -10 5 0 6 -4 8 -10 5 -5 -3 -10 -1 -10 5 0 6 -4 9
-8 6 -4 -2 -28 6 -54 19 -25 13 -49 21 -52 18 -3 -4 -6 -1 -6 5 0 7 -3 11 -7
10 -11 -2 -67 25 -75 37 -4 5 -8 7 -8 2 0 -4 -15 0 -32 10 -18 9 -35 18 -38
18 -3 0 -15 6 -26 13 -12 6 -24 8 -28 5 -3 -3 -6 -1 -6 6 0 7 -4 9 -10 6 -5
-3 -10 -1 -10 5 0 6 -4 9 -8 6 -5 -3 -23 4 -40 15 -18 10 -39 19 -46 19 -7 0
-19 7 -26 15 -7 8 -16 12 -21 9 -5 -3 -9 -1 -9 3 0 5 -10 10 -22 10 -13 1 -24
7 -26 13 -2 5 -12 10 -23 10 -10 0 -19 5 -19 11 0 5 -4 7 -10 4 -5 -3 -10 -1
-10 5 0 7 -7 10 -15 6 -8 -3 -15 -1 -15 4 0 6 -3 9 -7 8 -5 -1 -23 6 -40 15
-18 10 -33 15 -33 12 0 -4 -7 1 -16 9 -8 9 -20 14 -25 11 -5 -4 -9 -1 -9 5 0
6 -4 8 -10 5 -5 -3 -10 -1 -10 6 0 7 -3 9 -7 6 -3 -4 -12 -2 -20 4 -7 6 -13 8
-13 3 0 -4 -7 1 -16 12 -8 10 -13 13 -9 7 4 -8 -5 -6 -23 4 -38 22 -36 40 5
48 18 3 31 10 28 16 -4 5 2 9 13 9 10 0 22 3 26 8 4 4 11 7 14 8 4 0 31 12 61
27 30 15 61 27 68 27 7 0 13 5 13 11 0 5 5 7 10 4 5 -3 10 -1 10 4 0 6 8 11
18 11 10 0 28 8 41 17 18 12 22 13 17 2 -4 -8 -1 -6 7 3 8 10 17 15 20 11 4
-3 7 0 7 7 0 7 3 10 6 7 4 -3 16 -1 28 5 11 7 24 11 29 10 4 -1 7 2 7 8 0 6 3
9 8 8 8 -2 33 9 127 53 39 18 76 34 84 35 8 2 17 8 21 14 4 7 10 11 14 11 12
-2 24 2 81 29 28 13 53 23 58 22 4 -1 7 2 7 8 0 5 4 10 9 10 5 0 22 5 38 12
15 6 31 11 36 10 4 -1 7 3 7 10 0 6 3 8 6 5 4 -4 20 3 37 15 19 13 28 16 23 7
-4 -7 0 -5 9 6 9 11 17 19 18 17 1 -2 13 1 27 6 14 5 27 9 30 8 3 0 22 10 43
22 20 13 37 21 37 17 0 -3 13 3 29 14 15 11 31 18 34 15 3 -4 13 1 22 10 9 9
25 16 36 16 10 0 19 5 19 11 0 5 5 7 10 4 6 -3 10 -1 10 5 0 6 4 9 9 5 5 -3
12 -1 16 5 4 6 11 8 16 5 5 -4 9 -1 9 5 0 6 5 8 10 5 6 -3 10 -1 10 5 0 6 5 8
10 5 6 -3 10 -1 10 5 0 6 5 8 10 5 6 -3 10 -1 10 6 0 7 3 10 6 6 4 -3 23 2 43
12 20 11 38 19 41 18 3 0 16 6 30 13 14 8 28 13 33 12 4 -1 7 3 7 10 0 6 3 8
7 5 3 -4 15 0 25 10 10 9 18 13 18 9 0 -5 16 1 36 13 19 12 42 21 50 21 8 0
14 5 14 11 0 5 4 8 9 4 5 -3 12 -1 16 5 4 6 11 8 16 5 5 -4 9 -1 9 5 0 6 5 8
10 5 6 -3 10 -1 10 6 0 7 3 10 6 6 3 -3 21 3 40 14 19 10 41 19 49 19 8 0 15
4 15 8 0 9 70 37 83 34 4 -1 7 3 7 9 0 5 5 7 10 4 6 -3 10 -1 10 5 0 6 5 8 10
5 6 -3 10 -1 10 5 0 6 5 8 10 5 6 -3 10 -2 10 4 0 6 7 8 15 5 8 -4 15 -2 15 4
0 9 20 17 45 20 5 0 12 9 16 19 10 24 11 395 1 408 -4 6 -15 9 -24 7z"/>
<path d="M13507 12503 c-9 -8 -9 -396 -1 -417 3 -9 10 -13 15 -10 5 3 9 0 9
-6 0 -6 5 -8 10 -5 6 3 10 1 10 -5 0 -6 5 -8 10 -5 6 3 10 1 10 -6 0 -7 3 -10
6 -6 4 3 28 -5 55 -19 27 -13 52 -25 56 -25 5 0 13 -5 19 -10 7 -5 22 -12 35
-14 12 -3 26 -10 29 -16 4 -6 10 -10 14 -10 3 1 23 -6 44 -15 20 -10 40 -16
45 -16 4 1 7 -2 7 -8 0 -6 3 -9 8 -8 4 1 21 -5 37 -12 17 -7 33 -13 38 -12 4
1 7 -3 7 -9 0 -5 4 -8 9 -4 5 3 16 -1 24 -9 8 -8 17 -12 21 -9 3 4 6 1 6 -5 0
-6 7 -9 15 -6 8 4 15 1 15 -6 0 -6 5 -8 10 -5 6 3 10 1 10 -4 0 -6 3 -10 8 -9
4 1 17 -3 28 -10 12 -6 24 -8 28 -5 3 3 6 1 6 -6 0 -7 5 -9 10 -6 6 3 10 1 10
-5 0 -6 5 -8 10 -5 6 3 10 1 10 -5 0 -6 5 -8 10 -5 6 3 10 1 10 -5 0 -6 5 -8
10 -5 6 3 10 1 10 -5 0 -7 7 -10 15 -6 8 3 19 -2 24 -12 6 -9 11 -14 11 -9 0
4 13 1 29 -7 16 -9 31 -13 33 -10 3 2 11 -2 18 -11 7 -8 20 -15 29 -15 9 0 25
-7 35 -15 10 -8 23 -12 27 -9 5 3 9 0 9 -6 0 -6 5 -8 10 -5 6 3 10 1 10 -6 0
-7 3 -9 7 -6 3 4 15 0 25 -10 10 -9 18 -13 18 -9 0 3 10 0 23 -9 13 -8 27 -12
30 -8 4 3 7 1 7 -6 0 -7 5 -9 10 -6 6 3 10 1 10 -5 0 -6 5 -8 10 -5 6 3 10 1
10 -5 0 -6 5 -8 10 -5 6 3 10 1 10 -6 0 -7 3 -10 6 -6 4 3 19 0 35 -9 16 -8
31 -14 34 -14 3 0 25 -11 50 -25 25 -13 46 -24 48 -23 7 4 47 -15 47 -22 0 -5
7 -7 15 -4 8 4 15 1 15 -5 0 -6 9 -11 20 -11 11 0 20 -4 20 -10 0 -5 9 -10 19
-10 11 0 23 -4 26 -10 3 -5 15 -10 26 -10 10 0 19 -5 19 -10 0 -6 3 -9 8 -8 4
0 24 -6 44 -16 21 -9 41 -16 45 -17 5 0 15 -7 24 -15 9 -8 19 -11 22 -7 4 3 7
1 7 -5 0 -6 7 -9 15 -6 8 4 15 1 15 -6 0 -6 5 -8 10 -5 6 3 10 1 10 -5 0 -6 5
-8 10 -5 6 3 10 1 10 -4 0 -6 9 -11 19 -11 11 0 23 -4 26 -10 3 -5 15 -10 26
-10 13 0 18 -4 13 -12 -5 -8 -2 -9 9 -5 9 3 23 -1 32 -9 8 -9 15 -13 15 -9 0
3 10 -1 23 -10 13 -8 27 -12 30 -8 4 3 7 1 7 -6 0 -7 5 -9 10 -6 6 3 10 1 10
-4 0 -6 3 -10 8 -9 4 1 21 -5 37 -12 17 -7 34 -14 38 -14 4 -1 11 -5 15 -11 4
-5 16 -12 27 -13 11 -2 22 -8 23 -13 2 -5 8 -7 13 -4 5 4 19 -4 31 -15 23 -21
23 -21 3 -36 -11 -9 -32 -18 -47 -21 -16 -3 -28 -9 -28 -14 0 -5 -9 -9 -20 -9
-11 0 -20 -5 -20 -12 0 -6 -3 -9 -6 -5 -4 3 -19 0 -35 -9 -16 -8 -32 -15 -36
-15 -5 0 -15 -7 -24 -15 -9 -8 -19 -11 -22 -7 -4 3 -7 2 -7 -4 0 -5 -6 -10
-13 -10 -7 0 -36 -11 -65 -26 -28 -14 -52 -23 -52 -20 0 3 -8 -1 -18 -10 -10
-10 -22 -14 -25 -10 -4 3 -7 1 -7 -6 0 -7 -4 -9 -10 -6 -5 3 -10 1 -10 -4 0
-6 -3 -10 -7 -9 -14 3 -63 -14 -63 -22 0 -6 -35 -20 -43 -17 -1 0 -13 -6 -27
-13 -14 -8 -28 -13 -32 -12 -5 1 -8 -3 -8 -9 0 -5 -4 -7 -10 -4 -5 3 -10 1
-10 -6 0 -7 -3 -10 -6 -6 -3 3 -34 -9 -70 -27 -35 -18 -60 -28 -57 -22 4 5 -7
0 -24 -12 -17 -12 -33 -19 -37 -15 -3 3 -6 1 -6 -5 0 -7 -3 -11 -7 -10 -5 1
-21 -5 -38 -12 -16 -7 -33 -13 -37 -12 -5 1 -8 -2 -8 -8 0 -5 -9 -10 -20 -10
-11 0 -20 -5 -20 -11 0 -6 -6 -9 -14 -6 -8 3 -16 1 -18 -4 -2 -6 -11 -11 -20
-12 -9 -2 -22 -8 -30 -15 -8 -6 -18 -9 -21 -5 -4 3 -7 0 -7 -7 0 -7 -3 -10 -6
-7 -4 4 -19 0 -33 -8 -24 -14 -79 -36 -91 -37 -3 0 -17 -9 -31 -19 -14 -10
-29 -16 -33 -12 -3 3 -6 1 -6 -6 0 -7 -4 -10 -9 -6 -5 3 -12 1 -16 -5 -4 -6
-11 -8 -16 -5 -5 4 -9 2 -9 -4 0 -5 -13 -12 -30 -16 -16 -4 -30 -11 -30 -17 0
-6 -7 -7 -16 -4 -10 4 -13 2 -8 -6 5 -7 2 -9 -8 -5 -9 3 -21 0 -27 -6 -7 -7
-15 -12 -19 -13 -4 0 -27 -10 -52 -22 -25 -12 -51 -22 -57 -22 -7 0 -13 -5
-13 -10 0 -6 -3 -9 -7 -8 -5 1 -30 -9 -58 -22 -27 -12 -53 -22 -57 -22 -5 1
-8 -3 -8 -10 0 -6 -3 -9 -6 -5 -4 3 -19 0 -35 -9 -16 -8 -31 -13 -33 -12 -2 2
-13 -6 -25 -16 -12 -11 -21 -16 -21 -12 0 3 -19 -3 -42 -15 -24 -12 -44 -21
-46 -20 -1 1 -24 -9 -50 -23 -55 -28 -84 -40 -94 -38 -5 1 -8 -3 -8 -9 0 -5
-4 -7 -10 -4 -5 3 -10 1 -10 -4 0 -6 -7 -11 -16 -11 -40 0 -44 -20 -44 -234 0
-173 2 -206 14 -206 8 0 18 5 21 10 4 6 11 8 16 5 5 -4 9 -1 9 5 0 6 5 8 10 5
6 -3 10 -1 10 6 0 7 3 9 6 6 4 -3 16 -1 28 5 11 7 24 11 29 10 4 -1 7 3 7 9 0
5 5 7 10 4 6 -3 10 -3 10 2 0 4 15 14 33 21 17 8 44 20 59 28 15 8 29 14 30
13 2 -1 23 9 48 22 25 12 48 22 53 21 4 -1 7 3 7 9 0 5 4 8 8 5 5 -3 21 4 38
15 16 10 37 19 47 19 9 0 17 3 17 8 0 10 51 32 61 26 5 -3 9 -1 9 4 0 5 10 12
23 16 12 3 22 4 22 3 0 -1 14 8 31 20 17 12 34 20 38 16 3 -3 6 -1 6 6 0 7 5
9 10 6 6 -3 10 -1 10 6 0 7 3 10 6 6 4 -3 19 0 35 9 16 8 32 14 35 13 4 0 10
3 13 8 11 15 72 43 66 30 -4 -6 -1 -5 7 3 7 8 19 16 26 18 7 1 49 20 93 42 45
22 87 40 95 40 8 0 14 4 14 9 0 9 38 24 55 21 5 -1 15 6 21 15 7 9 15 16 18
16 3 -1 23 6 44 15 20 10 40 16 45 16 4 -1 7 3 7 9 0 5 5 7 10 4 6 -3 10 -1
10 6 0 7 3 10 6 6 4 -3 26 5 49 18 24 13 46 21 49 18 3 -4 6 -1 6 5 0 7 7 12
16 12 8 0 22 7 31 16 9 8 22 13 29 10 8 -3 14 -1 14 5 0 6 5 7 10 4 6 -3 10
-2 10 2 0 8 49 32 79 39 8 1 17 8 21 14 4 7 11 12 16 12 5 0 18 4 29 8 11 4
23 7 26 6 4 0 16 7 26 17 11 9 23 14 26 10 4 -3 7 -1 7 6 0 7 5 9 10 6 6 -3
10 -1 10 6 0 7 3 9 7 6 3 -4 15 1 26 10 11 10 18 13 14 7 -3 -6 32 9 78 33 47
23 85 40 85 37 0 -3 7 2 16 10 8 9 19 14 24 11 4 -3 13 2 20 10 7 8 16 12 21
9 5 -3 9 0 9 7 0 7 3 9 7 6 3 -4 17 0 30 8 13 9 23 12 23 8 0 -5 4 -3 8 2 9
12 104 59 115 57 4 -1 7 3 7 10 0 6 3 9 6 5 4 -3 21 1 38 10 17 10 34 16 39
15 4 -1 7 3 7 10 0 6 3 8 6 5 4 -4 20 3 35 14 16 11 29 18 29 14 0 -3 10 0 23
7 12 7 25 11 30 10 4 -1 7 2 7 8 0 5 9 10 20 10 11 0 20 5 20 10 0 6 9 10 20
10 11 0 20 5 20 10 0 6 3 9 8 8 4 -1 23 5 42 14 l35 15 -1 174 c-1 96 -5 182
-8 191 -7 15 -61 43 -78 39 -5 0 -8 4 -8 10 0 5 -4 7 -10 4 -5 -3 -10 -2 -10
4 0 5 -13 12 -30 16 -16 4 -30 11 -30 16 0 5 -3 8 -7 7 -5 -1 -30 8 -56 20
-27 12 -52 22 -57 22 -4 0 -13 7 -20 15 -7 8 -16 13 -20 10 -4 -3 -13 2 -20
10 -6 7 -18 11 -26 8 -8 -3 -14 0 -14 6 0 6 -9 11 -21 11 -11 0 -18 4 -15 8 2
4 -5 9 -17 9 -12 1 -23 7 -25 13 -2 5 -8 8 -13 4 -5 -3 -9 0 -9 6 0 6 -4 9 -9
5 -5 -3 -12 -1 -16 5 -4 6 -10 8 -15 5 -5 -3 -13 3 -19 12 -6 10 -11 14 -11 9
0 -5 -6 -4 -12 2 -7 6 -17 11 -23 12 -5 1 -26 10 -46 21 -20 10 -39 15 -43 12
-3 -4 -6 -1 -6 6 0 7 -4 9 -10 6 -5 -3 -10 -1 -10 5 0 6 -4 9 -9 5 -5 -3 -16
1 -24 9 -8 8 -17 12 -21 9 -3 -4 -6 -1 -6 5 0 7 -9 12 -20 12 -11 0 -20 5 -20
11 0 5 -4 7 -10 4 -5 -3 -10 -2 -10 4 0 6 -7 8 -15 5 -8 -4 -15 -1 -15 6 0 6
-4 9 -9 6 -5 -3 -14 1 -21 9 -7 8 -16 13 -20 10 -5 -3 -16 2 -24 11 -9 8 -16
12 -16 8 0 -5 -5 -3 -12 4 -7 7 -20 12 -29 12 -9 0 -22 7 -29 15 -7 8 -16 12
-21 9 -5 -3 -9 0 -9 6 0 6 -4 8 -10 5 -5 -3 -10 -1 -10 4 0 6 -3 10 -7 9 -5
-1 -30 9 -58 22 -27 13 -53 23 -57 22 -5 -1 -8 3 -8 8 0 5 -3 9 -7 8 -5 -1
-24 6 -43 17 -19 11 -38 20 -42 21 -5 1 -9 2 -10 4 -2 1 -12 3 -22 5 -10 2
-22 9 -26 15 -4 7 -9 11 -11 10 -7 -3 -64 24 -70 34 -4 5 -12 5 -18 2 -6 -4
-11 -3 -11 2 0 9 -37 25 -52 23 -5 -1 -8 4 -8 10 0 5 -4 8 -9 5 -5 -3 -14 1
-21 9 -7 8 -16 13 -20 10 -5 -3 -11 -1 -15 5 -4 6 -10 8 -15 5 -4 -3 -10 2
-14 10 -3 8 -12 12 -21 9 -8 -3 -15 -1 -15 6 0 6 -4 9 -9 6 -5 -4 -11 -2 -13
4 -2 6 -14 12 -27 15 -14 2 -28 10 -32 16 -4 6 -11 9 -17 5 -5 -3 -15 1 -22 9
-7 8 -16 13 -20 10 -4 -3 -13 2 -20 10 -7 8 -16 12 -21 9 -5 -3 -9 0 -9 6 0 6
-4 9 -8 6 -5 -3 -20 2 -33 12 -13 9 -33 18 -44 20 -11 1 -23 9 -28 17 -4 8
-14 12 -22 9 -8 -4 -15 -1 -15 6 0 6 -4 8 -10 5 -5 -3 -10 -1 -10 5 0 6 -4 8
-10 5 -5 -3 -10 -1 -10 6 0 7 -3 10 -6 7 -3 -3 -38 10 -77 29 -80 39 -118 56
-130 57 -4 1 -11 6 -15 11 -4 6 -11 10 -17 11 -24 3 -55 17 -55 26 0 5 -4 6
-10 3 -5 -3 -10 -1 -10 4 0 6 -7 11 -15 11 -17 0 -148 62 -153 72 -2 4 -10 4
-18 1 -8 -3 -14 0 -14 7 0 6 -4 8 -10 5 -5 -3 -10 -1 -10 5 0 6 -4 8 -10 5 -5
-3 -10 -1 -10 5 0 6 -4 8 -10 5 -5 -3 -10 -1 -10 5 0 6 -4 8 -10 5 -5 -3 -10
-1 -10 4 0 12 -13 14 -23 4z"/>
<path d="M7147 3693 c-2 -5 -5 -84 -5 -178 -1 -93 -4 -197 -7 -230 -3 -33 -8
-89 -11 -124 -3 -36 -7 -67 -9 -71 -2 -4 -7 -29 -10 -56 -13 -97 -68 -271
-117 -374 -28 -58 -53 -107 -57 -110 -3 -3 -20 -25 -36 -50 -42 -64 -160 -179
-233 -229 -89 -60 -210 -116 -341 -158 -86 -27 -121 -44 -144 -67 -84 -88 -79
-248 11 -296 29 -16 225 -17 2921 -17 2651 -1 2893 1 2923 16 64 33 90 135 57
226 -24 66 -67 101 -154 126 -127 36 -323 123 -377 168 -7 6 -38 31 -68 55
-132 104 -237 259 -305 446 -15 41 -28 82 -30 90 -2 8 -10 44 -19 80 -8 36
-18 83 -21 105 -4 22 -8 51 -11 65 -4 27 -15 149 -19 215 -2 22 -3 115 -4 208
l-1 167 -1964 0 c-1081 0 -1967 -3 -1969 -7z"/>
</g>
</svg>
